<?xml version="1.0" encoding="iso-8859-1"?>
<!-- Generator: Adobe Illustrator 18.1.1, SVG Export Plug-In . SVG Version: 6.00 Build 0)  -->
<svg version="1.1" id="Capa_1" xmlns="http://www.w3.org/2000/svg" xmlns:xlink="http://www.w3.org/1999/xlink" x="0px" y="0px"
	 viewBox="0 0 289.998 289.998" style="enable-background:new 0 0 289.998 289.998;" xml:space="preserve">
<path color-rendering="auto" image-rendering="auto" shape-rendering="auto" color-interpolation="sRGB" d="M72.496,0
	c-2.761,0-5,2.239-5,5v49.512c-5.373,2.351-10.405,5.705-14.793,10.094c-18.898,18.899-18.899,49.691,0,68.59
	c4.388,4.388,9.42,7.744,14.793,10.094v141.709c0,2.761,2.239,5,5,5c81.679,0,148.2-65.434,149.963-146.693
	c5.388-2.351,10.437-5.712,14.836-10.111c18.899-18.899,18.899-49.691,0-68.59c-4.388-4.388-9.422-7.743-14.795-10.094V5
	c0-2.761-2.239-5-5-5c-19.199,0-35.268,13.387-39.631,31.273c-10.159-7.482-21.472-11.424-32.871-11.424
	c-11.4,0-22.714,3.944-32.873,11.426C107.763,13.388,91.695,0,72.496,0L72.496,0z M77.496,10.5
	c14.713,2.388,25.898,14.987,25.898,30.396c0,2.762,2.238,5.001,5,5.001c1.298,0,2.546-0.505,3.479-1.408
	c10.266-9.939,21.745-14.641,33.125-14.641s22.859,4.702,33.125,14.641c1.984,1.921,5.15,1.869,7.071-0.115
	c0.903-0.933,1.408-2.18,1.408-3.479c0-15.41,11.186-28.009,25.898-30.396v40.867c-12.281-2.433-25.329-0.104-36.135,6.996
	c-8.359-7.661-19.921-11.238-31.367-11.238c-11.446,0-23.008,3.577-31.367,11.238c-10.806-7.099-23.854-9.429-36.135-6.996
	C77.496,51.367,77.496,10.5,77.496,10.5z M144.998,57.125c8.783,0,17.45,2.71,23.523,7.672
	c-18.71,18.915-18.652,49.561,0.184,68.396c11.832,11.832,28.324,16.255,43.643,13.271
	c-3.302,72.693-61.962,130.707-134.852,133.281V146.432c15.362,3.042,31.925-1.366,43.797-13.236
	c18.836-18.836,18.893-49.482,0.184-68.396C127.55,59.836,136.214,57.125,144.998,57.125L144.998,57.125z M86.998,60.367
	c9.843,0,19.686,3.769,27.225,11.307c15.077,15.077,15.078,39.37,0,54.447c-15.077,15.077-39.372,15.079-54.449,0
	c-15.077-15.077-15.076-39.37,0-54.447C67.312,64.135,77.155,60.367,86.998,60.367z M203,60.367c9.842,0,19.684,3.77,27.223,11.309
	c15.077,15.077,15.077,39.37,0,54.447c-15.077,15.077-39.37,15.077-54.447,0c-15.077-15.077-15.077-39.37,0-54.447
	C183.314,64.137,193.157,60.367,203,60.367L203,60.367z M86.998,64.928c-8.712,0-17.425,3.309-24.043,9.928
	c-1.975,1.93-2.012,5.096-0.083,7.071c1.93,1.975,5.096,2.012,7.071,0.083c0.028-0.027,0.055-0.054,0.082-0.082
	c9.415-9.415,24.529-9.413,33.943,0c1.929,1.976,5.095,2.014,7.071,0.085c1.976-1.929,2.014-5.095,0.085-7.071
	c-0.028-0.029-0.057-0.058-0.086-0.086C104.421,68.237,95.71,64.928,86.998,64.928z M203,64.928c-8.712,0-17.423,3.31-24.041,9.928
	c-1.992,1.913-2.055,5.079-0.142,7.07c1.913,1.992,5.079,2.055,7.07,0.141c0.048-0.046,0.095-0.093,0.142-0.142
	c9.415-9.415,24.527-9.415,33.941,0c1.913,1.992,5.078,2.057,7.07,0.144c1.992-1.913,2.057-5.078,0.144-7.07
	c-0.047-0.049-0.095-0.097-0.144-0.144C220.423,68.237,211.712,64.928,203,64.928z M86.998,88.896c-5.523,0-10,4.477-10,10
	s4.477,10,10,10s10-4.477,10-10S92.521,88.896,86.998,88.896z M203,88.896c-5.523,0-10,4.477-10,10s4.477,10,10,10s10-4.477,10-10
	S208.523,88.896,203,88.896z M144.998,145.076c-17,0-34,13.652-34,37.625c0,1.894,1.07,3.625,2.764,4.473l29,14.5
	c1.408,0.704,3.065,0.704,4.473,0l29-14.5c1.694-0.847,2.764-2.579,2.764-4.473C178.998,158.728,161.998,145.076,144.998,145.076z
	 M144.998,155.076c11.344,0,22.557,7.365,23.764,24.654l-23.764,11.881l-23.764-11.881
	C122.441,162.442,133.654,155.076,144.998,155.076z"/>
<g>
</g>
<g>
</g>
<g>
</g>
<g>
</g>
<g>
</g>
<g>
</g>
<g>
</g>
<g>
</g>
<g>
</g>
<g>
</g>
<g>
</g>
<g>
</g>
<g>
</g>
<g>
</g>
<g>
</g>
</svg>
