<svg id="Layer_3" data-name="Layer 3" xmlns="http://www.w3.org/2000/svg" viewBox="0 0 521.64 522.15"><title>cart</title><path d="M205.84,449.05c-30.08,0-54.46,25.08-54.46,56s24.38,56,54.46,56,54.46-25.08,54.46-56S235.91,449.05,205.84,449.05Zm0,87.13c-16.71,0-30.26-13.93-30.26-31.11S189.13,474,205.84,474s30.25,13.93,30.25,31.12S222.55,536.18,205.84,536.18Z" transform="translate(-39.44 -38.92)"/><path d="M435.77,449.05c-30.07,0-54.45,25.08-54.45,56s24.38,56,54.45,56,54.46-25.08,54.46-56S465.85,449.05,435.77,449.05Zm0,87.13c-16.7,0-30.25-13.93-30.25-31.11S419.07,474,435.77,474,466,487.88,466,505.07,452.48,536.18,435.77,536.18Z" transform="translate(-39.44 -38.92)"/><path d="M558.61,122.32a15,15,0,0,0-9.68-5L155,111.74,144.12,77.51c-7.67-22.88-28.51-38.33-52-38.59H51.54a12.46,12.46,0,0,0,0,24.9H92.08a31.56,31.56,0,0,1,29,21.78L198,324l-6.05,14.32a61.2,61.2,0,0,0,5.45,54.14,56,56,0,0,0,45.38,26.14H478.13a12.45,12.45,0,0,0,0-24.9H242.75a30.72,30.72,0,0,1-25.42-14.93,35.12,35.12,0,0,1-3-29.88l4.84-11.2L473.9,310.27c28-3.17,51-24.1,57.48-52.28l29-125.09A10.81,10.81,0,0,0,558.61,122.32ZM507.78,252.39c-3.93,18.14-18.9,31.52-36.91,33L219.15,312.14,162.88,136.63l370.92,5.6Z" transform="translate(-39.44 -38.92)"/></svg>