<svg id="Layer_1" data-name="Layer 1" xmlns="http://www.w3.org/2000/svg" viewBox="0 0 522.15 522.15"><title>category</title><path d="M278.32,105.37H267.09V221.25a45.07,45.07,0,0,1-44.91,44.92H106.3a45.07,45.07,0,0,1-44.92-44.92V105.37A45.07,45.07,0,0,1,106.3,60.46H222.18a45.07,45.07,0,0,1,44.91,44.91h22.46A67.52,67.52,0,0,0,222.18,38H106.3a67.54,67.54,0,0,0-67.38,67.37V221.25a67.54,67.54,0,0,0,67.38,67.38H222.18a67.52,67.52,0,0,0,67.37-67.38V105.37Z" transform="translate(-38.92 -38)"/><path d="M561.08,163.32v57.94a67.57,67.57,0,0,1-67.38,67.37H377.82a67.57,67.57,0,0,1-67.38-67.37V105.37A67.58,67.58,0,0,1,377.82,38h57.94V60.46H377.82a45.05,45.05,0,0,0-44.92,44.91V221.26a45.07,45.07,0,0,0,44.92,44.92H493.7a45.05,45.05,0,0,0,44.92-44.92V163.32Z" transform="translate(-38.92 -38)"/><path d="M278.32,376.9H267.09V492.78a45.09,45.09,0,0,1-44.91,44.92H106.3a45.09,45.09,0,0,1-44.92-44.92V376.9A45.09,45.09,0,0,1,106.3,332H222.18a45.09,45.09,0,0,1,44.91,44.92h22.46a67.52,67.52,0,0,0-67.37-67.37H106.3A67.54,67.54,0,0,0,38.92,376.9V492.78a67.54,67.54,0,0,0,67.38,67.37H222.18a67.52,67.52,0,0,0,67.37-67.37V376.9Z" transform="translate(-38.92 -38)"/><path d="M549.85,376.9H538.62V492.78A45.09,45.09,0,0,1,493.7,537.7H377.82a45.09,45.09,0,0,1-44.91-44.92V376.9A45.09,45.09,0,0,1,377.82,332H493.7a45.09,45.09,0,0,1,44.92,44.92h22.46a67.54,67.54,0,0,0-67.38-67.37H377.82a67.52,67.52,0,0,0-67.37,67.37V492.78a67.52,67.52,0,0,0,67.37,67.37H493.7a67.54,67.54,0,0,0,67.38-67.37V376.9Z" transform="translate(-38.92 -38)"/></svg>