<?xml version="1.0" encoding="utf-8"?>
<!-- Generator: Adobe Illustrator 22.1.0, SVG Export Plug-In . SVG Version: 6.00 Build 0)  -->
<svg version="1.1" id="Layer_1" xmlns="http://www.w3.org/2000/svg" xmlns:xlink="http://www.w3.org/1999/xlink" x="0px" y="0px"
	 viewBox="0 0 522.2 522.2" style="enable-background:new 0 0 522.2 522.2;" xml:space="preserve">
<title>category</title>
<path d="M451.9,142.6h-38.4c-10.5,0-19,8.6-19,19v7.5H49.6v22.5h344.9v8.4c0,10.5,8.6,19,19,19h38.4c10.5,0,19-8.6,19-19v-8.4v-22.5
	v-7.5C470.9,151.2,462.4,142.6,451.9,142.6z"/>
<path d="M470.9,303.7H126.1v-8c0-10.5-8.6-19-19-19H68.6c-10.5,0-19,8.6-19,19v8v22.5v8c0,10.5,8.6,19,19,19h38.4
	c10.5,0,19-8.6,19-19v-8h344.9V303.7z"/>
</svg>
